<svg xmlns="http://www.w3.org/2000/svg" viewBox="0 0 720 480" role="img" aria-hidden="true">
  <defs>
    <linearGradient id="contact-bg" x1="0" y1="0" x2="1" y2="1"><stop stop-color="#fff"/><stop offset="1" stop-color="#edf3f8"/></linearGradient>
    <linearGradient id="contact-gold" x1="0" y1="1" x2="1" y2="0"><stop stop-color="#c88912"/><stop offset="1" stop-color="#efbd4f"/></linearGradient>
    <filter id="contact-shadow" x="-20%" y="-20%" width="140%" height="140%"><feDropShadow dx="0" dy="12" stdDeviation="12" flood-color="#0f2747" flood-opacity=".12"/></filter>
  </defs>
  <rect x="64" y="60" width="592" height="350" rx="34" fill="url(#contact-bg)" stroke="#d8e1eb" stroke-width="3" filter="url(#contact-shadow)"/>
  <rect x="108" y="113" width="278" height="190" rx="26" fill="#fff" stroke="#0f2747" stroke-width="9"/>
  <path d="M119 132l128 103 128-103" fill="none" stroke="#d89a20" stroke-width="11" stroke-linecap="round" stroke-linejoin="round"/>
  <path d="M119 286l86-72M375 286l-86-72" fill="none" stroke="#0f2747" stroke-width="8" stroke-linecap="round" opacity=".72"/>
  <path d="M404 210h72c48 0 77 24 77 63v24" fill="none" stroke="#0f2747" stroke-width="12" stroke-linecap="round"/>
  <path d="M535 281l18 18 18-18" fill="none" stroke="#0f2747" stroke-width="12" stroke-linecap="round" stroke-linejoin="round"/>
  <circle cx="553" cy="342" r="48" fill="url(#contact-gold)"/>
  <path d="M529 342l16 16 32-36" fill="none" stroke="#0f2747" stroke-width="11" stroke-linecap="round" stroke-linejoin="round"/>
  <rect x="112" y="338" width="260" height="31" rx="15" fill="#0f2747" opacity=".9"/>
  <circle cx="139" cy="353" r="7" fill="#efbd4f"/>
  <path d="M161 353h174" fill="none" stroke="#fff" stroke-width="7" stroke-linecap="round"/>
  <circle cx="88" cy="385" r="16" fill="#efbd4f" opacity=".34"/><circle cx="634" cy="85" r="13" fill="#0f2747" opacity=".18"/>
</svg>
