<svg xmlns="http://www.w3.org/2000/svg" viewBox="0 0 960 540" width="960" height="540" role="img" aria-labelledby="title desc">
  <title id="title">Les sept étapes de la digitalisation</title>
  <desc id="desc">Un processus horizontal présente sept étapes numérotées, du diagnostic à l'amélioration continue.</desc>
  <defs>
    <linearGradient id="bg" x1="0" y1="0" x2="1" y2="1"><stop stop-color="#fff"/><stop offset="1" stop-color="#edf3f8"/></linearGradient>
    <linearGradient id="gold" x1="0" y1="1" x2="1" y2="0"><stop stop-color="#c88912"/><stop offset="1" stop-color="#efbd4f"/></linearGradient>
    <filter id="shadow" x="-20%" y="-20%" width="140%" height="140%"><feDropShadow dx="0" dy="8" stdDeviation="8" flood-color="#0f2747" flood-opacity=".12"/></filter>
    <marker id="arrow" viewBox="0 0 10 10" refX="9" refY="5" markerWidth="7" markerHeight="7" orient="auto"><path d="M0 0l10 5-10 5z" fill="#d89a20"/></marker>
  </defs>
  <rect x="24" y="24" width="912" height="492" rx="30" fill="url(#bg)" stroke="#d8e1eb" stroke-width="3"/>
  <text x="480" y="68" text-anchor="middle" fill="#0f2747" font-family="Arial, sans-serif" font-size="28" font-weight="700">Les 7 étapes de la digitalisation</text>
  <path d="M115 184H845" stroke="#d89a20" stroke-width="6" stroke-linecap="round" marker-end="url(#arrow)"/>
  <path d="M845 344H115" stroke="#1f6f78" stroke-width="6" stroke-linecap="round" marker-end="url(#arrow)"/>

  <g font-family="Arial, sans-serif" filter="url(#shadow)">
    <g transform="translate(62 112)">
      <rect width="170" height="142" rx="22" fill="#fff" stroke="#d8e1eb" stroke-width="3"/>
      <circle cx="85" cy="0" r="27" fill="#0f2747"/><text x="85" y="8" text-anchor="middle" fill="#fff" font-size="22" font-weight="700">1</text>
      <circle cx="85" cy="52" r="24" fill="#edf3f8"/><path d="M73 60l10-10 8 7 10-15" fill="none" stroke="#0f2747" stroke-width="5" stroke-linecap="round"/>
      <text x="85" y="101" text-anchor="middle" fill="#0f2747" font-size="19" font-weight="700">Diagnostiquer</text>
    </g>
    <g transform="translate(282 112)">
      <rect width="170" height="142" rx="22" fill="#fff" stroke="#d8e1eb" stroke-width="3"/>
      <circle cx="85" cy="0" r="27" fill="#0f2747"/><text x="85" y="8" text-anchor="middle" fill="#fff" font-size="22" font-weight="700">2</text>
      <circle cx="85" cy="52" r="24" fill="#fff0c7"/><path d="M85 34l6 12 13 2-10 9 3 13-12-7-12 7 3-13-10-9 13-2z" fill="#d89a20"/>
      <text x="85" y="101" text-anchor="middle" fill="#0f2747" font-size="19" font-weight="700">Prioriser</text>
    </g>
    <g transform="translate(502 112)">
      <rect width="170" height="142" rx="22" fill="#fff" stroke="#d8e1eb" stroke-width="3"/>
      <circle cx="85" cy="0" r="27" fill="#0f2747"/><text x="85" y="8" text-anchor="middle" fill="#fff" font-size="22" font-weight="700">3</text>
      <path d="M56 45h58M66 58h38" stroke="#1f6f78" stroke-width="7" stroke-linecap="round"/>
      <text x="85" y="101" text-anchor="middle" fill="#0f2747" font-size="19" font-weight="700">Simplifier</text>
    </g>
    <g transform="translate(722 112)">
      <rect width="170" height="142" rx="22" fill="#fff" stroke="#d8e1eb" stroke-width="3"/>
      <circle cx="85" cy="0" r="27" fill="#0f2747"/><text x="85" y="8" text-anchor="middle" fill="#fff" font-size="22" font-weight="700">4</text>
      <rect x="59" y="31" width="52" height="48" rx="8" fill="#edf3f8" stroke="#0f2747" stroke-width="4"/>
      <path d="M72 55l9 9 18-22" fill="none" stroke="#d89a20" stroke-width="6" stroke-linecap="round" stroke-linejoin="round"/>
      <text x="85" y="101" text-anchor="middle" fill="#0f2747" font-size="18" font-weight="700">Choisir l'outil</text>
    </g>

    <g transform="translate(612 326)">
      <rect width="190" height="142" rx="22" fill="#fff" stroke="#d8e1eb" stroke-width="3"/>
      <circle cx="95" cy="0" r="27" fill="#1f6f78"/><text x="95" y="8" text-anchor="middle" fill="#fff" font-size="22" font-weight="700">5</text>
      <rect x="61" y="31" width="68" height="49" rx="8" fill="#edf3f8" stroke="#0f2747" stroke-width="3"/>
      <path d="M72 45h46M72 57h46M72 69h31" stroke="#d89a20" stroke-width="4" stroke-linecap="round"/>
      <text x="95" y="101" text-anchor="middle" fill="#0f2747" font-size="18" font-weight="700">Organiser les données</text>
    </g>
    <g transform="translate(385 326)">
      <rect width="190" height="142" rx="22" fill="#fff" stroke="#d8e1eb" stroke-width="3"/>
      <circle cx="95" cy="0" r="27" fill="#1f6f78"/><text x="95" y="8" text-anchor="middle" fill="#fff" font-size="22" font-weight="700">6</text>
      <circle cx="78" cy="49" r="15" fill="#0f2747"/><circle cx="112" cy="49" r="15" fill="#d89a20"/>
      <path d="M58 78c4-15 14-22 20-22s16 7 20 22M92 78c4-15 14-22 20-22s16 7 20 22" fill="none" stroke="#1f6f78" stroke-width="5"/>
      <text x="95" y="96" text-anchor="middle" fill="#0f2747" font-size="17" font-weight="700">Accompagner</text>
      <text x="95" y="117" text-anchor="middle" fill="#0f2747" font-size="17" font-weight="700">les utilisateurs</text>
    </g>
    <g transform="translate(148 326)">
      <rect width="200" height="142" rx="22" fill="#fff" stroke="#d8e1eb" stroke-width="3"/>
      <circle cx="100" cy="0" r="27" fill="#1f6f78"/><text x="100" y="8" text-anchor="middle" fill="#fff" font-size="22" font-weight="700">7</text>
      <path d="M77 61a25 25 0 1 1 39 15" fill="none" stroke="#0f2747" stroke-width="6" stroke-linecap="round"/>
      <path d="M111 64l7 14 13-9" fill="none" stroke="#d89a20" stroke-width="5" stroke-linecap="round" stroke-linejoin="round"/>
      <text x="100" y="101" text-anchor="middle" fill="#0f2747" font-size="17" font-weight="700">Tester et améliorer</text>
    </g>
  </g>
</svg>
