<svg xmlns="http://www.w3.org/2000/svg" viewBox="0 0 720 480" role="img" aria-hidden="true">
  <defs>
    <linearGradient id="services-panel" x1="0" y1="0" x2="1" y2="1">
      <stop offset="0" stop-color="#ffffff"/>
      <stop offset="1" stop-color="#edf3f8"/>
    </linearGradient>
    <linearGradient id="services-gold" x1="0" y1="1" x2="1" y2="0">
      <stop offset="0" stop-color="#c88912"/>
      <stop offset="1" stop-color="#efbd4f"/>
    </linearGradient>
    <filter id="services-shadow" x="-20%" y="-20%" width="140%" height="140%">
      <feDropShadow dx="0" dy="12" stdDeviation="12" flood-color="#0f2747" flood-opacity=".12"/>
    </filter>
  </defs>
  <rect x="62" y="56" width="596" height="360" rx="34" fill="url(#services-panel)" stroke="#d8e1eb" stroke-width="3" filter="url(#services-shadow)"/>
  <circle cx="360" cy="130" r="54" fill="#0f2747"/>
  <circle cx="360" cy="130" r="25" fill="#efbd4f"/>
  <path d="M360 184v48M360 232H190M360 232h170M190 232v48M530 232v48" fill="none" stroke="#0f2747" stroke-width="10" stroke-linecap="round" stroke-linejoin="round"/>
  <rect x="110" y="278" width="160" height="92" rx="22" fill="#ffffff" stroke="#d8e1eb" stroke-width="3"/>
  <path d="M142 337l25-25 23 17 43-39" fill="none" stroke="url(#services-gold)" stroke-width="11" stroke-linecap="round" stroke-linejoin="round"/>
  <path d="M216 290h19v19" fill="none" stroke="#d89a20" stroke-width="10" stroke-linecap="round" stroke-linejoin="round"/>
  <rect x="450" y="278" width="160" height="92" rx="22" fill="#ffffff" stroke="#d8e1eb" stroke-width="3"/>
  <path d="M530 294l43 17v30c0 31-24 46-43 54-19-8-43-23-43-54v-30z" fill="#0f2747"/>
  <path d="M510 339l14 14 28-31" fill="none" stroke="#efbd4f" stroke-width="10" stroke-linecap="round" stroke-linejoin="round"/>
  <rect x="293" y="265" width="134" height="112" rx="24" fill="#ffffff" stroke="#d8e1eb" stroke-width="3"/>
  <circle cx="328" cy="303" r="12" fill="#efbd4f"/>
  <path d="M351 303h48M321 333h78M321 354h54" fill="none" stroke="#0f2747" stroke-width="9" stroke-linecap="round"/>
  <path d="M113 146h93M513 146h94" fill="none" stroke="#d89a20" stroke-width="8" stroke-linecap="round" stroke-dasharray="4 18"/>
  <circle cx="105" cy="146" r="12" fill="#0f2747"/>
  <circle cx="615" cy="146" r="12" fill="#0f2747"/>
  <circle cx="87" cy="386" r="16" fill="#efbd4f" opacity=".35"/>
  <circle cx="637" cy="82" r="13" fill="#0f2747" opacity=".18"/>
</svg>
