<svg xmlns="http://www.w3.org/2000/svg" viewBox="0 0 720 480" role="img" aria-hidden="true">
  <defs>
    <linearGradient id="roadmap-bg" x1="0" y1="0" x2="1" y2="1"><stop stop-color="#fff"/><stop offset="1" stop-color="#edf3f8"/></linearGradient>
    <linearGradient id="roadmap-gold" x1="0" y1="1" x2="1" y2="0"><stop stop-color="#c88912"/><stop offset="1" stop-color="#efbd4f"/></linearGradient>
    <filter id="roadmap-shadow" x="-20%" y="-20%" width="140%" height="140%"><feDropShadow dx="0" dy="12" stdDeviation="12" flood-color="#0f2747" flood-opacity=".12"/></filter>
  </defs>
  <rect x="62" y="58" width="596" height="356" rx="34" fill="url(#roadmap-bg)" stroke="#d8e1eb" stroke-width="3" filter="url(#roadmap-shadow)"/>
  <path d="M126 324c54-78 97-30 142-93s92-13 139-71 91-24 155-72" fill="none" stroke="#0f2747" stroke-width="14" stroke-linecap="round" stroke-dasharray="4 24"/>
  <circle cx="126" cy="324" r="27" fill="#fff" stroke="#0f2747" stroke-width="9"/>
  <circle cx="268" cy="231" r="27" fill="#fff" stroke="#0f2747" stroke-width="9"/>
  <circle cx="407" cy="160" r="27" fill="#fff" stroke="#0f2747" stroke-width="9"/>
  <circle cx="562" cy="88" r="34" fill="url(#roadmap-gold)" stroke="#fff" stroke-width="8"/>
  <path d="M548 89l10 10 21-24" fill="none" stroke="#0f2747" stroke-width="9" stroke-linecap="round" stroke-linejoin="round"/>
  <circle cx="126" cy="324" r="8" fill="#efbd4f"/><circle cx="268" cy="231" r="8" fill="#efbd4f"/><circle cx="407" cy="160" r="8" fill="#efbd4f"/>
  <circle cx="232" cy="336" r="57" fill="#0f2747"/>
  <circle cx="232" cy="336" r="28" fill="#fff"/>
  <path d="M232 305l11 31-11 31-11-31z" fill="#efbd4f"/>
  <path d="M232 336l49-35" fill="none" stroke="#efbd4f" stroke-width="9" stroke-linecap="round"/>
  <path d="M275 294l15 1-5 14" fill="none" stroke="#efbd4f" stroke-width="8" stroke-linecap="round" stroke-linejoin="round"/>
  <circle cx="88" cy="386" r="16" fill="#efbd4f" opacity=".34"/><circle cx="635" cy="390" r="13" fill="#0f2747" opacity=".18"/>
</svg>
