<svg xmlns="http://www.w3.org/2000/svg" viewBox="0 0 720 480" role="img" aria-hidden="true">
  <defs>
    <linearGradient id="tools-panel" x1="0" y1="0" x2="1" y2="1">
      <stop offset="0" stop-color="#ffffff"/>
      <stop offset="1" stop-color="#edf3f8"/>
    </linearGradient>
    <linearGradient id="tools-gold" x1="0" y1="1" x2="1" y2="0">
      <stop offset="0" stop-color="#c88912"/>
      <stop offset="1" stop-color="#efbd4f"/>
    </linearGradient>
    <filter id="tools-shadow" x="-20%" y="-20%" width="140%" height="140%">
      <feDropShadow dx="0" dy="12" stdDeviation="12" flood-color="#0f2747" flood-opacity=".13"/>
    </filter>
  </defs>
  <rect x="64" y="60" width="592" height="350" rx="34" fill="url(#tools-panel)" stroke="#d8e1eb" stroke-width="3" filter="url(#tools-shadow)"/>
  <rect x="100" y="96" width="332" height="242" rx="25" fill="#ffffff" stroke="#d8e1eb" stroke-width="3"/>
  <path d="M100 137h332" fill="none" stroke="#d8e1eb" stroke-width="3"/>
  <circle cx="126" cy="117" r="6" fill="#efbd4f"/>
  <circle cx="147" cy="117" r="6" fill="#0f2747" opacity=".5"/>
  <circle cx="168" cy="117" r="6" fill="#0f2747" opacity=".22"/>
  <rect x="128" y="165" width="83" height="58" rx="13" fill="#eef3f8"/>
  <rect x="225" y="165" width="83" height="58" rx="13" fill="#eef3f8"/>
  <rect x="322" y="165" width="83" height="58" rx="13" fill="#eef3f8"/>
  <circle cx="149" cy="185" r="8" fill="#d89a20"/>
  <circle cx="246" cy="185" r="8" fill="#d89a20"/>
  <circle cx="343" cy="185" r="8" fill="#d89a20"/>
  <path d="M169 185h25M266 185h25M363 185h25M140 205h53M237 205h53M334 205h53" fill="none" stroke="#0f2747" stroke-width="7" stroke-linecap="round"/>
  <path d="M129 260h276M129 292h220" fill="none" stroke="#0f2747" stroke-width="10" stroke-linecap="round" opacity=".78"/>
  <circle cx="395" cy="292" r="13" fill="#efbd4f"/>
  <path d="M388 292l5 5 10-13" fill="none" stroke="#0f2747" stroke-width="5" stroke-linecap="round" stroke-linejoin="round"/>
  <rect x="462" y="113" width="148" height="178" rx="25" fill="#0f2747"/>
  <rect x="486" y="139" width="100" height="36" rx="10" fill="#ffffff" opacity=".94"/>
  <g fill="url(#tools-gold)">
    <circle cx="500" cy="205" r="12"/>
    <circle cx="536" cy="205" r="12"/>
    <circle cx="572" cy="205" r="12"/>
    <circle cx="500" cy="241" r="12"/>
    <circle cx="536" cy="241" r="12"/>
    <rect x="560" y="229" width="25" height="25" rx="8"/>
  </g>
  <path d="M458 330h132l24 49H434z" fill="#ffffff" stroke="#d8e1eb" stroke-width="3"/>
  <path d="M468 350h112" fill="none" stroke="#0f2747" stroke-width="9" stroke-linecap="round"/>
  <circle cx="86" cy="380" r="16" fill="#efbd4f" opacity=".35"/>
  <circle cx="634" cy="84" r="13" fill="#ffffff" opacity=".65"/>
</svg>
